<svg xmlns="http://www.w3.org/2000/svg" viewBox="0 0 1800 1300" width="1800" height="1300" font-family="DejaVu Sans, Arial, sans-serif"><defs>
<pattern id="br" width="10" height="26" patternUnits="userSpaceOnUse"><rect width="10" height="26" fill="#f6efe0"/><rect width="10" height="11" fill="#27305c"/></pattern>
<pattern id="ch" width="22" height="22" patternUnits="userSpaceOnUse" patternTransform="rotate(12)"><rect width="22" height="22" fill="#a8262a"/><rect x="5" y="5" width="8" height="8" fill="none" stroke="#f1d6a8" stroke-width="2.2"/><circle cx="17" cy="17" r="1.8" fill="#f1d6a8"/></pattern>
<linearGradient id="leg" x1="0" y1="0" x2="0" y2="1"><stop offset="0" stop-color="#2a0f2c"/><stop offset="1" stop-color="#8a3a3a"/></linearGradient>
</defs><rect width="1800" height="1300" fill="#faf5ee"/><g transform="translate(330,610) scale(1.05,1.05)">
    <path d="M-20,-200 L0,-200 L-30,0Z M6,-200 L26,-200 L40,0Z" fill="url(#leg)" stroke="#3b1436" stroke-width="4" stroke-linejoin="round" stroke-linecap="round"/>
    <path d="M-10,-360 L10,-360 L8,-330 L-8,-330Z" fill="#2a0f2c" stroke="#3b1436" stroke-width="4" stroke-linejoin="round" stroke-linecap="round"/>
    <path d="M-18,-344 L-66,-372 L-52,-322 C-72,-262 -88,-214 -104,-166 L-58,-190 L-34,-150 L-4,-188 L26,-152 L52,-190 L96,-164 C82,-220 64,-272 52,-322 L66,-372 L18,-344Z" fill="url(#br)" stroke="#3b1436" stroke-width="5" stroke-linejoin="round" stroke-linecap="round"/>
    <path d="M52,-322 C64,-272 82,-220 96,-164 L52,-190 L26,-152 L18,-200 C30,-250 40,-290 52,-322Z" fill="#3b1436" opacity=".28"/>
    <path d="M-18,-344 L-66,-372 L-52,-322 L-20,-318Z M18,-344 L66,-372 L52,-322 L20,-318Z" fill="#2a0f2c" stroke="#3b1436" stroke-width="4" stroke-linejoin="round" stroke-linecap="round"/>
    <path d="M50,-318 L96,-268 L46,-232" fill="none" stroke="#3b1436" stroke-width="15" stroke-linecap="round" stroke-linejoin="round"/><path d="M50,-318 L96,-268 L46,-232" fill="none" stroke="#2a0f2c" stroke-width="9" stroke-linecap="round" stroke-linejoin="round"/>
    <path d="M-66,-262 L-176,-34 q-10,24 12,32 l8,-12 q-10,-6 -4,-16 L-52,-256Z" fill="#e2452e" stroke="#3b1436" stroke-width="4" stroke-linejoin="round" stroke-linecap="round"/>
    <path d="M-62,-250 L-166,-36" stroke="#ff9a7a" stroke-width="3" stroke-linecap="round"/>
    <path d="M-50,-318 L-92,-262 L-78,-222" fill="none" stroke="#3b1436" stroke-width="15" stroke-linecap="round" stroke-linejoin="round"/><path d="M-50,-318 L-92,-262 L-78,-222" fill="none" stroke="#2a0f2c" stroke-width="9" stroke-linecap="round" stroke-linejoin="round"/>
    <circle cx="-76" cy="-224" r="11" fill="#f3d2b3" stroke="#3b1436" stroke-width="4" stroke-linejoin="round" stroke-linecap="round"/><circle cx="46" cy="-232" r="11" fill="#f3d2b3" stroke="#3b1436" stroke-width="4" stroke-linejoin="round" stroke-linecap="round"/>
    <ellipse cx="-50" cy="-424" rx="9" ry="13" fill="#e2b894" stroke="#3b1436" stroke-width="4" stroke-linejoin="round" stroke-linecap="round"/><circle cx="-54" cy="-408" r="7" fill="none" stroke="#f2b24a" stroke-width="4"/>
    <path d="M-46,-428 C-52,-506 52,-506 46,-428 C44,-398 22,-380 0,-352 C-22,-380 -44,-398 -46,-428Z" fill="#f3d2b3" stroke="#3b1436" stroke-width="5" stroke-linejoin="round" stroke-linecap="round"/>
    <path d="M-27,-388 C-10,-396 10,-396 27,-388 C16,-374 8,-364 0,-352 C-8,-364 -16,-374 -27,-388Z" fill="#4a3a52"/><path d="M-5,-368 L5,-368 L0,-354Z" fill="#cfc6d2"/>
    <path d="M-46,-428 C-52,-506 52,-506 46,-428 C44,-398 22,-380 0,-352 C-22,-380 -44,-398 -46,-428Z" fill="none" stroke="#3b1436" stroke-width="5" stroke-linejoin="round" stroke-linecap="round"/>
    <path d="M22,-470 C34,-462 40,-446 40,-430 C28,-440 20,-454 22,-470Z" fill="#fff" opacity=".75"/>
    <g transform="translate(-20,-424) rotate(24)"><path d="M-15,0 C-6.0,-10 9.0,-9.0 15,-1.5 C7.5,7.0 -7.5,6.0 -15,0Z" fill="#3b1436"/><circle cx="-4.5" cy="-2.0" r="2.2" fill="#fff" opacity=".9"/></g><g transform="translate(20,-424) rotate(156)"><path d="M-15,0 C-6.0,-10 9.0,-9.0 15,-1.5 C7.5,7.0 -7.5,6.0 -15,0Z" fill="#3b1436"/><circle cx="-4.5" cy="-2.0" r="2.2" fill="#fff" opacity=".9"/></g>
    <path transform="translate(84,-440) scale(1.1)" d="M0,-14 L7,0 L0,14 L-7,0Z" fill="#f2b24a" opacity=".9"/><path transform="translate(100,-410) scale(0.6)" d="M0,-14 L7,0 L0,14 L-7,0Z" fill="#f2b24a" opacity=".9"/><path transform="translate(-120,-300) scale(0.8)" d="M0,-14 L7,0 L0,14 L-7,0Z" fill="#f2b24a" opacity=".9"/></g><text x="330" y="670" text-anchor="middle" font-size="30" font-weight="800" letter-spacing="3" fill="#b23a2a">THE CROWBAR</text><text x="330" y="694" text-anchor="middle" font-size="15" fill="#8a6a70">player 1</text><g transform="translate(900,610) scale(1.05,1.05)">
    <path d="M56,-176 L68,-190 L196,6Z" fill="#eaf6ff" stroke="#3b1436" stroke-width="4" stroke-linejoin="round" stroke-linecap="round"/><path d="M66,-180 L188,0" stroke="#9fd0ea" stroke-width="2.5"/>
    <path d="M-12,-130 L2,-130 L-18,0Z M8,-130 L22,-130 L24,0Z" fill="url(#leg)" stroke="#3b1436" stroke-width="4" stroke-linejoin="round" stroke-linecap="round"/>
    <path d="M-8,-352 C-78,-360 -96,-292 -78,-248 C-96,-214 -100,-176 -134,-150 C-86,-150 -58,-186 -48,-236 L48,-236 C62,-200 56,-166 86,-140 C108,-190 94,-246 76,-270 C92,-326 44,-358 -8,-352Z" fill="#2a1024" stroke="#3b1436" stroke-width="5" stroke-linejoin="round" stroke-linecap="round"/>
    <path d="M-12,-240 C-40,-200 -86,-150 -104,-116 C-74,-100 -46,-112 -24,-96 C-2,-112 22,-112 42,-96 C62,-112 84,-104 104,-116 C86,-150 40,-200 12,-240Z" fill="url(#ch)" stroke="#3b1436" stroke-width="5" stroke-linejoin="round" stroke-linecap="round"/>
    <path d="M12,-240 C40,-200 86,-150 104,-116 C84,-104 62,-112 42,-96 C40,-150 30,-200 12,-240Z" fill="#3b1436" opacity=".3"/>
    <path d="M-24,-96 C-22,-150 -14,-200 -4,-236 M42,-96 C36,-150 22,-200 8,-236" stroke="#3b1436" stroke-width="3" fill="none" opacity=".6"/>
    <path d="M20,-214 L58,-196 L62,-180" fill="none" stroke="#3b1436" stroke-width="13" stroke-linecap="round" stroke-linejoin="round"/><path d="M20,-214 L58,-196 L62,-180" fill="none" stroke="#2a0f2c" stroke-width="7" stroke-linecap="round" stroke-linejoin="round"/>
    <path d="M40,-170 q24,-34 44,-6" fill="none" stroke="#3b1436" stroke-width="12" stroke-linecap="round"/><path d="M40,-170 q24,-34 44,-6" fill="none" stroke="#f2b24a" stroke-width="6" stroke-linecap="round"/>
    <path d="M52,-196 L28,-232" stroke="#3b1436" stroke-width="10" stroke-linecap="round"/><circle cx="24" cy="-238" r="9" fill="none" stroke="#3b1436" stroke-width="5"/><circle cx="24" cy="-238" r="9" fill="none" stroke="#f2b24a" stroke-width="2"/>
    <path d="M-40,-292 C-44,-346 44,-346 40,-292 C38,-264 16,-248 0,-232 C-16,-248 -38,-264 -40,-292Z" fill="#a9683f" stroke="#3b1436" stroke-width="5" stroke-linejoin="round" stroke-linecap="round"/>
    <path d="M-44,-286 C-50,-356 50,-356 44,-286 C30,-322 -2,-330 -44,-286Z" fill="#2a1024" stroke="#3b1436" stroke-width="4" stroke-linejoin="round" stroke-linecap="round"/>
    <path d="M18,-338 C44,-326 50,-290 60,-250" stroke="#d9c08a" stroke-width="7" fill="none" stroke-linecap="round"/>
    <g transform="translate(-17,-284) rotate(22)"><path d="M-13,0 C-5.2,-9 7.8,-8.1 13,-1.3499999999999999 C6.5,6.3 -6.5,5.3999999999999995 -13,0Z" fill="#fff"/></g><g transform="translate(17,-284) rotate(158)"><path d="M-13,0 C-5.2,-9 7.8,-8.1 13,-1.3499999999999999 C6.5,6.3 -6.5,5.3999999999999995 -13,0Z" fill="#fff"/></g>
    <path transform="translate(-100,-330) scale(1)" d="M0,-14 L7,0 L0,14 L-7,0Z" fill="#f2b24a" opacity=".9"/><path transform="translate(-120,-296) scale(0.6)" d="M0,-14 L7,0 L0,14 L-7,0Z" fill="#f2b24a" opacity=".9"/><path transform="translate(110,-250) scale(0.7)" d="M0,-14 L7,0 L0,14 L-7,0Z" fill="#e58a8a" opacity=".9"/></g><text x="900" y="670" text-anchor="middle" font-size="30" font-weight="800" letter-spacing="3" fill="#3b1436">CHARM</text><text x="900" y="694" text-anchor="middle" font-size="15" fill="#8a6a70">player 2, the sword</text><g transform="translate(1420,610) scale(1.05,1.05)">
    <path d="M-92,-150 C-150,-156 -160,-96 -132,-72" fill="none" stroke="#3b1436" stroke-width="12" stroke-linecap="round"/><path d="M-92,-150 C-150,-156 -160,-96 -132,-72" fill="none" stroke="#e9c896" stroke-width="5" stroke-linecap="round"/>
    <path d="M-66,-118 L-50,-118 L-44,0Z" fill="#c79c63" stroke="#3b1436" stroke-width="4" stroke-linejoin="round" stroke-linecap="round"/><path d="M62,-128 L76,-128 L88,0Z" fill="#c79c63" stroke="#3b1436" stroke-width="4" stroke-linejoin="round" stroke-linecap="round"/>
    <path d="M-96,-150 C-64,-176 20,-170 58,-180 C92,-176 100,-142 82,-124 C44,-104 -4,-98 -50,-110 C-88,-110 -106,-130 -96,-150Z" fill="#e9c896" stroke="#3b1436" stroke-width="5" stroke-linejoin="round" stroke-linecap="round"/>
    <path d="M82,-124 C44,-104 -4,-98 -50,-110 C-10,-112 50,-124 82,-124Z" fill="#c79c63"/>
    <path d="M-88,-122 L-70,-122 L-92,0Z" fill="#e9c896" stroke="#3b1436" stroke-width="4" stroke-linejoin="round" stroke-linecap="round"/><path d="M44,-124 L60,-124 L50,0Z" fill="#e9c896" stroke="#3b1436" stroke-width="4" stroke-linejoin="round" stroke-linecap="round"/>
    <path d="M46,-172 L78,-250 L112,-232 L94,-146Z" fill="#e9c896" stroke="#3b1436" stroke-width="5" stroke-linejoin="round" stroke-linecap="round"/>
    <path d="M60,-212 L104,-190 L96,-170 L70,-176 L20,-150 L52,-190Z" fill="#c8322c" stroke="#3b1436" stroke-width="4" stroke-linejoin="round" stroke-linecap="round"/>
    <path d="M68,-268 C82,-294 114,-290 128,-272 L196,-238 L190,-224 L122,-224 C92,-218 68,-240 68,-268Z" fill="#e9c896" stroke="#3b1436" stroke-width="5" stroke-linejoin="round" stroke-linecap="round"/>
    <path d="M84,-280 L52,-246 L96,-254Z" fill="#c79c63" stroke="#3b1436" stroke-width="4" stroke-linejoin="round" stroke-linecap="round"/>
    <circle cx="193" cy="-232" r="6" fill="#3b1436"/>
    <g transform="translate(118,-256) rotate(18)"><path d="M-12,0 C-4.800000000000001,-8 7.199999999999999,-7.2 12,-1.2 C6.0,5.6 -6.0,4.8 -12,0Z" fill="#3b1436"/><circle cx="-3.5999999999999996" cy="-1.6" r="1.76" fill="#fff" opacity=".9"/></g>
    <path transform="translate(150,-300) scale(0.8)" d="M0,-14 L7,0 L0,14 L-7,0Z" fill="#f2b24a" opacity=".9"/><path transform="translate(-150,-190) scale(0.6)" d="M0,-14 L7,0 L0,14 L-7,0Z" fill="#f2b24a" opacity=".9"/></g><text x="1440" y="670" text-anchor="middle" font-size="30" font-weight="800" letter-spacing="3" fill="#a8683f">LOUIS</text><text x="1440" y="694" text-anchor="middle" font-size="15" fill="#8a6a70">called with Y</text><g transform="translate(100,1200) scale(-1.0,1.0)"><path d="M-12.0,-27.6 L-4.800000000000001,-27.6 L-13.200000000000001,0Z" fill="#2a0f2c" stroke="#3b1436" stroke-width="4" stroke-linejoin="round" stroke-linecap="round"/><path d="M4.800000000000001,-27.6 L12.0,-27.6 L14.399999999999999,0Z" fill="#2a0f2c" stroke="#3b1436" stroke-width="4" stroke-linejoin="round" stroke-linecap="round"/><g transform="translate(0,-42.0)"><path d="M-6,-21.6 C-10.8,-31.200000000000003 -19.44,-36.0 -15.119999999999997,-43.2 C-6.4799999999999995,-38.400000000000006 -2.4000000000000004,-31.200000000000003 4,-22.799999999999997 C4.800000000000001,-33.599999999999994 10.8,-40.8 19.44,-47.52 C17.280000000000005,-38.400000000000006 12.0,-28.799999999999997 10,-21.6Z" fill="#3f7a3a" stroke="#3b1436" stroke-width="4" stroke-linejoin="round" stroke-linecap="round"/><ellipse cx="0" cy="0" rx="24.0" ry="24.0" fill="#d8342c" stroke="#3b1436" stroke-width="5" stroke-linejoin="round" stroke-linecap="round"/><path d="M4.800000000000001,23.04 C21.6,16.799999999999997 24.48,-2.4000000000000004 16.799999999999997,-15.84 C16.799999999999997,2.4000000000000004 12.0,14.399999999999999 4.800000000000001,23.04Z" fill="#9c1c26"/><path d="M-17.28,-7.199999999999999 C-15.84,-15.84 -7.199999999999999,-19.68 -2.88,-18.72 C-9.600000000000001,-14.399999999999999 -14.399999999999999,-9.600000000000001 -17.28,-7.199999999999999Z" fill="#f58a6a"/><ellipse cx="0" cy="0" rx="24.0" ry="24.0" fill="none" stroke="#3b1436" stroke-width="5" stroke-linejoin="round" stroke-linecap="round"/><g transform="translate(-7.199999999999999,1.2000000000000002) rotate(26)"><path d="M-7.199999999999999,0 C-2.88,-4.4639999999999995 4.319999999999999,-4.0176 7.199999999999999,-0.6695999999999999 C3.5999999999999996,3.1247999999999996 -3.5999999999999996,2.6783999999999994 -7.199999999999999,0Z" fill="#3b1436"/><circle cx="-2.1599999999999997" cy="-0.8927999999999999" r="0.98208" fill="#fff" opacity=".9"/></g><g transform="translate(8.64,1.2000000000000002) rotate(154)"><path d="M-7.199999999999999,0 C-2.88,-4.4639999999999995 4.319999999999999,-4.0176 7.199999999999999,-0.6695999999999999 C3.5999999999999996,3.1247999999999996 -3.5999999999999996,2.6783999999999994 -7.199999999999999,0Z" fill="#3b1436"/><circle cx="-2.1599999999999997" cy="-0.8927999999999999" r="0.98208" fill="#fff" opacity=".9"/></g></g></g><text x="100" y="1250" text-anchor="middle" font-size="30" font-weight="800" letter-spacing="3" fill="#8a2a3a">CHERRY</text><text x="100" y="1274" text-anchor="middle" font-size="15" fill="#8a6a70">swarm walker</text><g transform="translate(300,1200) scale(-1.0,1.0)"><path d="M-36.25,-57.050000000000004 L-14.5,-57.050000000000004 L-39.875,0Z" fill="#2a0f2c" stroke="#3b1436" stroke-width="4" stroke-linejoin="round" stroke-linecap="round"/><path d="M14.5,-57.050000000000004 L36.25,-57.050000000000004 L43.5,0Z" fill="#2a0f2c" stroke="#3b1436" stroke-width="4" stroke-linejoin="round" stroke-linecap="round"/><g transform="translate(0,-88.37)"><path d="M-6,-46.980000000000004 C-17.4,-67.86 -31.32,-78.30000000000001 -24.359999999999996,-62.64 C-10.44,-83.52000000000001 -5.800000000000001,-67.86 4,-49.59 C11.600000000000001,-73.08 17.4,-88.74000000000001 31.32,-68.90400000000001 C27.840000000000003,-83.52000000000001 29.0,-62.64 10,-46.980000000000004Z" fill="#3f7a3a" stroke="#3b1436" stroke-width="4" stroke-linejoin="round" stroke-linecap="round"/><ellipse cx="0" cy="0" rx="72.5" ry="52.2" fill="#b8242a" stroke="#3b1436" stroke-width="5" stroke-linejoin="round" stroke-linecap="round"/><path d="M14.5,50.112 C65.25,36.54 73.95,-5.220000000000001 50.75,-34.452000000000005 C50.75,5.220000000000001 36.25,31.32 14.5,50.112Z" fill="#7a1424"/><path d="M-52.199999999999996,-15.66 C-47.85,-34.452000000000005 -21.75,-42.804 -8.7,-40.716 C-29.0,-31.32 -43.5,-20.880000000000003 -52.199999999999996,-15.66Z" fill="#e0705a"/><ellipse cx="0" cy="0" rx="72.5" ry="52.2" fill="none" stroke="#3b1436" stroke-width="5" stroke-linejoin="round" stroke-linecap="round"/><g transform="translate(-21.75,2.6100000000000003) rotate(26)"><path d="M-17.4,0 C-6.96,-10.787999999999998 10.44,-9.7092 17.4,-1.6181999999999996 C8.7,7.551599999999999 -8.7,6.4727999999999986 -17.4,0Z" fill="#3b1436"/><circle cx="-5.22" cy="-2.1576" r="2.3733599999999995" fill="#fff" opacity=".9"/></g><g transform="translate(26.099999999999998,2.6100000000000003) rotate(154)"><path d="M-17.4,0 C-6.96,-10.787999999999998 10.44,-9.7092 17.4,-1.6181999999999996 C8.7,7.551599999999999 -8.7,6.4727999999999986 -17.4,0Z" fill="#3b1436"/><circle cx="-5.22" cy="-2.1576" r="2.3733599999999995" fill="#fff" opacity=".9"/></g><path d="M-72,-10 L-112,60 L-80,40Z M72,-10 L112,60 L80,40Z" fill="#2a0f2c" stroke="#3b1436" stroke-width="4" stroke-linejoin="round" stroke-linecap="round"/></g></g><text x="300" y="1250" text-anchor="middle" font-size="30" font-weight="800" letter-spacing="3" fill="#8a2a3a">BEEFSTEAK</text><text x="300" y="1274" text-anchor="middle" font-size="15" fill="#8a6a70">heavy brute</text><g transform="translate(490,1200) scale(-1.0,1.0)"><path d="M-10.5,-48.5 L-30.0,-24.200000000000003 L-15.0,0 M10.5,-48.5 L30.0,-24.200000000000003 L18.0,0" fill="none" stroke="#3b1436" stroke-width="6" stroke-linejoin="round" stroke-linecap="round"/><g transform="translate(0,-69.5)"><path d="M-6,-27.0 C-15.0,-39.0 -27.0,-45.0 -21.0,-60.0 C-9.0,-48.0 -3.0,-39.0 4,-28.5 C6.0,-42.0 15.0,-51.0 27.0,-66.0 C24.0,-48.0 15.0,-36.0 10,-27.0Z" fill="#3f7a3a" stroke="#3b1436" stroke-width="4" stroke-linejoin="round" stroke-linecap="round"/><ellipse cx="0" cy="0" rx="30.0" ry="30.0" fill="#f08a24" stroke="#3b1436" stroke-width="5" stroke-linejoin="round" stroke-linecap="round"/><path d="M6.0,28.799999999999997 C27.0,21.0 30.6,-3.0 21.0,-19.8 C21.0,3.0 15.0,18.0 6.0,28.799999999999997Z" fill="#b84a14"/><path d="M-21.599999999999998,-9.0 C-19.8,-19.8 -9.0,-24.599999999999998 -3.5999999999999996,-23.400000000000002 C-12.0,-18.0 -18.0,-12.0 -21.599999999999998,-9.0Z" fill="#ffc880"/><ellipse cx="0" cy="0" rx="30.0" ry="30.0" fill="none" stroke="#3b1436" stroke-width="5" stroke-linejoin="round" stroke-linecap="round"/><g transform="translate(-9.0,1.5) rotate(26)"><path d="M-9.0,0 C-3.6,-5.58 5.3999999999999995,-5.022 9.0,-0.837 C4.5,3.9059999999999997 -4.5,3.348 -9.0,0Z" fill="#3b1436"/><circle cx="-2.6999999999999997" cy="-1.116" r="1.2276" fill="#fff" opacity=".9"/></g><g transform="translate(10.799999999999999,1.5) rotate(154)"><path d="M-9.0,0 C-3.6,-5.58 5.3999999999999995,-5.022 9.0,-0.837 C4.5,3.9059999999999997 -4.5,3.348 -9.0,0Z" fill="#3b1436"/><circle cx="-2.6999999999999997" cy="-1.116" r="1.2276" fill="#fff" opacity=".9"/></g></g></g><text x="490" y="1250" text-anchor="middle" font-size="30" font-weight="800" letter-spacing="3" fill="#8a2a3a">HOPPER</text><text x="490" y="1274" text-anchor="middle" font-size="15" fill="#8a6a70">leaps at you</text><g transform="translate(740,1200) scale(-1.0,1.0)"><path d="M-11.200000000000001,-60.499999999999986 L-4.48,-60.499999999999986 L-12.320000000000002,0Z" fill="#2a0f2c" stroke="#3b1436" stroke-width="4" stroke-linejoin="round" stroke-linecap="round"/><path d="M4.48,-60.499999999999986 L11.200000000000001,-60.499999999999986 L13.440000000000001,0Z" fill="#2a0f2c" stroke="#3b1436" stroke-width="4" stroke-linejoin="round" stroke-linecap="round"/><g transform="translate(0,-85.69999999999999)"><path d="M-6,-37.800000000000004 C-9.799999999999999,-54.6 -17.639999999999997,-63.0 -13.719999999999997,-58.8 C-5.88,-67.2 -2.8000000000000003,-54.6 4,-39.9 C5.6000000000000005,-58.8 9.799999999999999,-71.39999999999999 17.639999999999997,-64.68 C15.68,-67.2 14.0,-50.4 10,-37.800000000000004Z" fill="#3f7a3a" stroke="#3b1436" stroke-width="4" stroke-linejoin="round" stroke-linecap="round"/><ellipse cx="0" cy="0" rx="22.400000000000002" ry="42.0" fill="#d8342c" stroke="#3b1436" stroke-width="5" stroke-linejoin="round" stroke-linecap="round"/><path d="M4.48,40.32 C20.160000000000004,29.4 22.848000000000003,-4.2 15.68,-27.720000000000002 C15.68,4.2 11.200000000000001,25.2 4.48,40.32Z" fill="#9c1c26"/><path d="M-16.128,-12.6 C-14.784000000000002,-27.720000000000002 -6.720000000000001,-34.44 -2.688,-32.76 C-8.96,-25.2 -13.440000000000001,-16.8 -16.128,-12.6Z" fill="#f58a6a"/><ellipse cx="0" cy="0" rx="22.400000000000002" ry="42.0" fill="none" stroke="#3b1436" stroke-width="5" stroke-linejoin="round" stroke-linecap="round"/><g transform="translate(-6.720000000000001,2.1) rotate(26)"><path d="M-8.4,0 C-3.3600000000000003,-5.208 5.04,-4.687200000000001 8.4,-0.7812 C4.2,3.6456 -4.2,3.1248 -8.4,0Z" fill="#3b1436"/><circle cx="-2.52" cy="-1.0416" r="1.1457600000000001" fill="#fff" opacity=".9"/></g><g transform="translate(8.064,2.1) rotate(154)"><path d="M-8.4,0 C-3.3600000000000003,-5.208 5.04,-4.687200000000001 8.4,-0.7812 C4.2,3.6456 -4.2,3.1248 -8.4,0Z" fill="#3b1436"/><circle cx="-2.52" cy="-1.0416" r="1.1457600000000001" fill="#fff" opacity=".9"/></g><path d="M30,10 L150,70 L28,26Z" fill="#eaf6ff" stroke="#3b1436" stroke-width="4" stroke-linejoin="round" stroke-linecap="round"/></g></g><text x="740" y="1250" text-anchor="middle" font-size="30" font-weight="800" letter-spacing="3" fill="#8a2a3a">PLUM</text><text x="740" y="1274" text-anchor="middle" font-size="15" fill="#8a6a70">charging lancer</text><g transform="translate(910,1200) scale(-1.0,1.0)"><path d="M-15.0,-34.5 L-6.0,-34.5 L-16.5,0Z" fill="#2a0f2c" stroke="#3b1436" stroke-width="4" stroke-linejoin="round" stroke-linecap="round"/><path d="M6.0,-34.5 L15.0,-34.5 L18.0,0Z" fill="#2a0f2c" stroke="#3b1436" stroke-width="4" stroke-linejoin="round" stroke-linecap="round"/><g transform="translate(0,-52.5)"><path d="M-6,-27.0 C-15.0,-39.0 -27.0,-45.0 -21.0,-60.0 C-9.0,-48.0 -3.0,-39.0 4,-28.5 C6.0,-42.0 15.0,-51.0 27.0,-66.0 C24.0,-48.0 15.0,-36.0 10,-27.0Z" fill="#2f5a2c" stroke="#3b1436" stroke-width="4" stroke-linejoin="round" stroke-linecap="round"/><ellipse cx="0" cy="0" rx="30.0" ry="30.0" fill="#9ac83e" stroke="#3b1436" stroke-width="5" stroke-linejoin="round" stroke-linecap="round"/><path d="M6.0,28.799999999999997 C27.0,21.0 30.6,-3.0 21.0,-19.8 C21.0,3.0 15.0,18.0 6.0,28.799999999999997Z" fill="#4f8a2a"/><path d="M-21.599999999999998,-9.0 C-19.8,-19.8 -9.0,-24.599999999999998 -3.5999999999999996,-23.400000000000002 C-12.0,-18.0 -18.0,-12.0 -21.599999999999998,-9.0Z" fill="#d8f08a"/><ellipse cx="0" cy="0" rx="30.0" ry="30.0" fill="none" stroke="#3b1436" stroke-width="5" stroke-linejoin="round" stroke-linecap="round"/><g transform="translate(-9.0,1.5) rotate(26)"><path d="M-9.0,0 C-3.6,-5.58 5.3999999999999995,-5.022 9.0,-0.837 C4.5,3.9059999999999997 -4.5,3.348 -9.0,0Z" fill="#3b1436"/><circle cx="-2.6999999999999997" cy="-1.116" r="1.2276" fill="#fff" opacity=".9"/></g><g transform="translate(10.799999999999999,1.5) rotate(154)"><path d="M-9.0,0 C-3.6,-5.58 5.3999999999999995,-5.022 9.0,-0.837 C4.5,3.9059999999999997 -4.5,3.348 -9.0,0Z" fill="#3b1436"/><circle cx="-2.6999999999999997" cy="-1.116" r="1.2276" fill="#fff" opacity=".9"/></g><circle cx="60" cy="18" r="8" fill="#d8f08a" stroke="#3b1436" stroke-width="3" stroke-linejoin="round" stroke-linecap="round"/><circle cx="86" cy="12" r="5" fill="#d8f08a" stroke="#3b1436" stroke-width="3" stroke-linejoin="round" stroke-linecap="round"/></g></g><text x="910" y="1250" text-anchor="middle" font-size="30" font-weight="800" letter-spacing="3" fill="#8a2a3a">GREENIE</text><text x="910" y="1274" text-anchor="middle" font-size="15" fill="#8a6a70">seed spitter</text><g transform="translate(1120,1200) scale(-1.0,1.0)"><path transform="translate(0,-130.099999999999998) scale(1,1)" d="M10,0 C40,-70 100,-90 150,-70 C120,-50 130,-30 104,-22 C116,-4 90,6 60,10Z" fill="#5c9a4a" stroke="#3b1436" stroke-width="4" stroke-linejoin="round" stroke-linecap="round"/><path transform="translate(0,-130.099999999999998) scale(-1,1)" d="M10,0 C40,-70 100,-90 150,-70 C120,-50 130,-30 104,-22 C116,-4 90,6 60,10Z" fill="#5c9a4a" stroke="#3b1436" stroke-width="4" stroke-linejoin="round" stroke-linecap="round"/><g transform="translate(0,-130.099999999999998)"><path d="M-6,-23.400000000000002 C-13.0,-33.800000000000004 -23.400000000000002,-39.0 -18.2,-52.0 C-7.8,-41.6 -2.6,-33.800000000000004 4,-24.7 C5.2,-36.4 13.0,-44.199999999999996 23.400000000000002,-57.2 C20.8,-41.6 13.0,-31.2 10,-23.400000000000002Z" fill="#3f7a3a" stroke="#3b1436" stroke-width="4" stroke-linejoin="round" stroke-linecap="round"/><ellipse cx="0" cy="0" rx="26.0" ry="26.0" fill="#d8342c" stroke="#3b1436" stroke-width="5" stroke-linejoin="round" stroke-linecap="round"/><path d="M5.2,24.96 C23.400000000000002,18.2 26.52,-2.6 18.2,-17.16 C18.2,2.6 13.0,15.6 5.2,24.96Z" fill="#9c1c26"/><path d="M-18.72,-7.8 C-17.16,-17.16 -7.8,-21.32 -3.12,-20.28 C-10.4,-15.6 -15.6,-10.4 -18.72,-7.8Z" fill="#f58a6a"/><ellipse cx="0" cy="0" rx="26.0" ry="26.0" fill="none" stroke="#3b1436" stroke-width="5" stroke-linejoin="round" stroke-linecap="round"/><g transform="translate(-7.8,1.3) rotate(26)"><path d="M-7.8,0 C-3.12,-4.836 4.68,-4.3524 7.8,-0.7254 C3.9,3.3852 -3.9,2.9016 -7.8,0Z" fill="#3b1436"/><circle cx="-2.34" cy="-0.9672000000000001" r="1.06392" fill="#fff" opacity=".9"/></g><g transform="translate(9.36,1.3) rotate(154)"><path d="M-7.8,0 C-3.12,-4.836 4.68,-4.3524 7.8,-0.7254 C3.9,3.3852 -3.9,2.9016 -7.8,0Z" fill="#3b1436"/><circle cx="-2.34" cy="-0.9672000000000001" r="1.06392" fill="#fff" opacity=".9"/></g></g></g><text x="1120" y="1250" text-anchor="middle" font-size="30" font-weight="800" letter-spacing="3" fill="#8a2a3a">VINE FLYER</text><text x="1120" y="1274" text-anchor="middle" font-size="15" fill="#8a6a70">dive bomber</text><g transform="translate(1370,1200) scale(-1.0,1.0)"><path transform="translate(0,-43.120000000000005)" d="M-27.200000000000003,-10 C-51.0,11.714285714285715 -54.400000000000006,26.357142857142858 -64.6,38.07142857142858 L-37.400000000000006,32.214285714285715 L-20.4,41.0 L0,32.800000000000004 L20.4,41.0 L37.400000000000006,32.214285714285715 L64.6,38.07142857142858 C54.400000000000006,26.357142857142858 51.0,11.714285714285715 27.200000000000003,-10Z" fill="#5a2a3a" stroke="#3b1436" stroke-width="5" stroke-linejoin="round" stroke-linecap="round"/><path d="M-18.700000000000003,-26.800000000000004 L-7.480000000000001,-26.800000000000004 L-20.570000000000004,0Z" fill="#2a0f2c" stroke="#3b1436" stroke-width="4" stroke-linejoin="round" stroke-linecap="round"/><path d="M7.480000000000001,-26.800000000000004 L18.700000000000003,-26.800000000000004 L22.44,0Z" fill="#2a0f2c" stroke="#3b1436" stroke-width="4" stroke-linejoin="round" stroke-linecap="round"/><g transform="translate(0,-43.120000000000005)"><path d="M-6,-24.480000000000004 C-11.899999999999999,-35.36000000000001 -21.419999999999998,-40.800000000000004 -16.659999999999997,-38.08 C-7.139999999999999,-43.52000000000001 -3.4000000000000004,-35.36000000000001 4,-25.84 C6.800000000000001,-38.08 11.899999999999999,-46.24 21.419999999999998,-41.888000000000005 C19.04,-43.52000000000001 17.0,-32.64 10,-24.480000000000004Z" fill="#7a6a34" stroke="#3b1436" stroke-width="4" stroke-linejoin="round" stroke-linecap="round"/><ellipse cx="0" cy="0" rx="37.400000000000006" ry="27.200000000000003" fill="#8a2a24" stroke="#3b1436" stroke-width="5" stroke-linejoin="round" stroke-linecap="round"/><path d="M7.480000000000001,26.112000000000002 C33.660000000000004,19.04 38.148,-2.7200000000000006 26.180000000000003,-17.952 C26.180000000000003,2.7200000000000006 18.700000000000003,16.32 7.480000000000001,26.112000000000002Z" fill="#4a1020"/><path d="M-26.928000000000004,-8.16 C-24.684000000000005,-17.952 -11.22,-22.304000000000002 -4.488,-21.216000000000005 C-14.960000000000003,-16.32 -22.44,-10.880000000000003 -26.928000000000004,-8.16Z" fill="#b85a44"/><ellipse cx="0" cy="0" rx="37.400000000000006" ry="27.200000000000003" fill="none" stroke="#3b1436" stroke-width="5" stroke-linejoin="round" stroke-linecap="round"/><g transform="translate(-11.22,1.3600000000000003) rotate(26)"><path d="M-10.2,0 C-4.08,-6.324 6.119999999999999,-5.6916 10.2,-0.9485999999999999 C5.1,4.426799999999999 -5.1,3.7943999999999996 -10.2,0Z" fill="#3b1436"/><circle cx="-3.0599999999999996" cy="-1.2648000000000001" r="1.39128" fill="#fff" opacity=".9"/></g><g transform="translate(13.464000000000002,1.3600000000000003) rotate(154)"><path d="M-10.2,0 C-4.08,-6.324 6.119999999999999,-5.6916 10.2,-0.9485999999999999 C5.1,4.426799999999999 -5.1,3.7943999999999996 -10.2,0Z" fill="#3b1436"/><circle cx="-3.0599999999999996" cy="-1.2648000000000001" r="1.39128" fill="#fff" opacity=".9"/></g><path d="M-24,-16 q10,8 2,18 M12,-20 q-8,10 2,18" stroke="#3b1436" stroke-width="3.5" fill="none"/></g></g><text x="1370" y="1250" text-anchor="middle" font-size="30" font-weight="800" letter-spacing="3" fill="#8a2a3a">SUN-DRIED</text><text x="1370" y="1274" text-anchor="middle" font-size="15" fill="#8a6a70">armoured</text><g transform="translate(1620,1200) scale(-1.0,1.0)"><path transform="translate(0,-134.6)" d="M-64.0,-10 C-120.0,37.714285714285715 -128.0,84.85714285714286 -152.0,122.57142857142857 L-88.0,103.71428571428571 L-48.0,132.0 L0,105.6 L48.0,132.0 L88.0,103.71428571428571 L152.0,122.57142857142857 C128.0,84.85714285714286 120.0,37.714285714285715 64.0,-10Z" fill="#2a0f2c" stroke="#3b1436" stroke-width="5" stroke-linejoin="round" stroke-linecap="round"/><path d="M-44.0,-89.0 L-17.6,-89.0 L-48.400000000000006,0Z" fill="#2a0f2c" stroke="#3b1436" stroke-width="4" stroke-linejoin="round" stroke-linecap="round"/><path d="M17.6,-89.0 L44.0,-89.0 L52.8,0Z" fill="#2a0f2c" stroke="#3b1436" stroke-width="4" stroke-linejoin="round" stroke-linecap="round"/><g transform="translate(0,-134.6)"><path d="M-6,-68.4 C-22.0,-98.8 -39.6,-114.0 -30.800000000000004,-83.60000000000001 C-13.200000000000001,-121.60000000000001 -8.0,-98.8 4,-72.2 C16.0,-106.39999999999999 22.0,-129.2 39.6,-91.96000000000002 C35.2,-121.60000000000001 40.0,-91.2 10,-68.4Z" fill="#3f7a3a" stroke="#3b1436" stroke-width="4" stroke-linejoin="round" stroke-linecap="round"/><ellipse cx="0" cy="0" rx="88.0" ry="76.0" fill="#d8342c" stroke="#3b1436" stroke-width="5" stroke-linejoin="round" stroke-linecap="round"/><path d="M17.6,72.96 C79.2,53.199999999999996 89.76,-7.6000000000000005 61.599999999999994,-50.160000000000004 C61.599999999999994,7.6000000000000005 44.0,45.6 17.6,72.96Z" fill="#9c1c26"/><path d="M-63.36,-22.8 C-58.080000000000005,-50.160000000000004 -26.4,-62.31999999999999 -10.559999999999999,-59.28 C-35.2,-45.6 -52.8,-30.400000000000002 -63.36,-22.8Z" fill="#f58a6a"/><ellipse cx="0" cy="0" rx="88.0" ry="76.0" fill="none" stroke="#3b1436" stroke-width="5" stroke-linejoin="round" stroke-linecap="round"/><g transform="translate(-26.4,3.8000000000000003) rotate(26)"><path d="M-24.0,0 C-9.600000000000001,-14.879999999999999 14.399999999999999,-13.392 24.0,-2.2319999999999998 C12.0,10.415999999999999 -12.0,8.927999999999999 -24.0,0Z" fill="#3b1436"/><circle cx="-7.199999999999999" cy="-2.976" r="3.2735999999999996" fill="#fff" opacity=".9"/></g><g transform="translate(31.68,3.8000000000000003) rotate(154)"><path d="M-24.0,0 C-9.600000000000001,-14.879999999999999 14.399999999999999,-13.392 24.0,-2.2319999999999998 C12.0,10.415999999999999 -12.0,8.927999999999999 -24.0,0Z" fill="#3b1436"/><circle cx="-7.199999999999999" cy="-2.976" r="3.2735999999999996" fill="#fff" opacity=".9"/></g><path d="M-50,-70 L-42,-128 L-20,-90 L0,-140 L20,-90 L42,-128 L50,-70Z" fill="#f2b24a" stroke="#3b1436" stroke-width="5" stroke-linejoin="round" stroke-linecap="round"/></g></g><text x="1620" y="1250" text-anchor="middle" font-size="30" font-weight="800" letter-spacing="3" fill="#8a2a3a">BIG TOM</text><text x="1620" y="1274" text-anchor="middle" font-size="15" fill="#8a6a70">boss</text></svg>